<svg xmlns="http://www.w3.org/2000/svg" width="128" height="46" viewBox="0 0 128 46" role="img" aria-label="Download for macOS">
  <rect x="0.5" y="0.5" width="127" height="45" fill="#11141a" stroke="#3b3f48"/>
  <g transform="translate(24,15) scale(0.6667)" fill="#ffffff">
    <path d="M17.05 12.04c-.03-3.02 2.47-4.48 2.58-4.55-1.41-2.06-3.61-2.34-4.39-2.37-1.87-.19-3.65 1.1-4.6 1.1-.95 0-2.42-1.08-3.98-1.05-2.05.03-3.94 1.19-5 3.02-2.13 3.7-.55 9.18 1.53 12.18 1.02 1.47 2.23 3.12 3.82 3.06 1.54-.06 2.12-.99 3.98-.99 1.86 0 2.38.99 4.01.96 1.66-.03 2.71-1.5 3.72-2.97 1.17-1.71 1.66-3.37 1.69-3.45-.04-.02-3.23-1.24-3.26-4.94zM14.13 3.41c.84-1.02 1.41-2.44 1.25-3.86-1.21.05-2.67.81-3.55 1.83-.78.9-1.47 2.34-1.28 3.73 1.34.1 2.74-.68 3.58-1.7z"/>
  </g>
  <text x="51" y="29" font-family="ui-monospace, SFMono-Regular, Menlo, Consolas, monospace" font-size="12" font-weight="700" letter-spacing="1.9" fill="#ffffff">MACOS</text>
</svg>
