<svg xmlns="http://www.w3.org/2000/svg" width="124" height="46" viewBox="0 0 124 46" role="img" aria-label="Download for Linux">
  <rect x="0.5" y="0.5" width="123" height="45" fill="#11141a" stroke="#3b3f48"/>
  <g transform="translate(24,15) scale(0.6667)" fill="#ffffff">
    <path d="M12 2c-2.2 0-4 1.8-4 4v3.4c0 1-.4 1.8-1.1 2.6C5.5 13.6 4.5 15.3 4.5 17.3c0 .8.4 1.5 1.1 1.9l-1 1.7c-.3.5-.1 1.1.4 1.4.5.3 1.1.1 1.4-.4l.9-1.6c.3.1.6.1.9.1h7.6c.3 0 .6 0 .9-.1l.9 1.6c.3.5.9.7 1.4.4.5-.3.7-.9.4-1.4l-1-1.7c.7-.4 1.1-1.1 1.1-1.9 0-2-1-3.7-2.4-5.3-.7-.8-1.1-1.6-1.1-2.6V6c0-2.2-1.8-4-4-4z"/>
  </g>
  <text x="51" y="29" font-family="ui-monospace, SFMono-Regular, Menlo, Consolas, monospace" font-size="12" font-weight="700" letter-spacing="1.9" fill="#ffffff">LINUX</text>
</svg>
